<svg width="24" height="24" viewBox="0 0 24 24" fill="none" xmlns="http://www.w3.org/2000/svg">
<path fill-rule="evenodd" clip-rule="evenodd" d="M5.47007 5.46983C5.6107 5.32938 5.80132 5.25049 6.00007 5.25049C6.19882 5.25049 6.38945 5.32938 6.53007 5.46983L17.2501 16.1898V8.99983C17.2501 8.80092 17.3291 8.61015 17.4697 8.4695C17.6104 8.32885 17.8012 8.24983 18.0001 8.24983C18.199 8.24983 18.3898 8.32885 18.5304 8.4695C18.6711 8.61015 18.7501 8.80092 18.7501 8.99983V17.9998C18.7501 18.1987 18.6711 18.3895 18.5304 18.5302C18.3898 18.6708 18.199 18.7498 18.0001 18.7498H9.00007C8.80116 18.7498 8.61039 18.6708 8.46974 18.5302C8.32909 18.3895 8.25007 18.1987 8.25007 17.9998C8.25007 17.8009 8.32909 17.6102 8.46974 17.4695C8.61039 17.3288 8.80116 17.2498 9.00007 17.2498H16.1901L5.47007 6.52983C5.32962 6.3892 5.25073 6.19858 5.25073 5.99983C5.25073 5.80108 5.32962 5.61045 5.47007 5.46983Z" fill="#0BC6FF"/>
</svg>
