<svg width="48" height="24" viewBox="0 0 48 24" fill="none" xmlns="http://www.w3.org/2000/svg">
<path d="M7 4C7 3.44772 7.44772 3 8 3H15.95C16.5023 3 16.95 3.44772 16.95 4V12.7239C16.95 12.8792 16.9139 13.0323 16.8444 13.1711L13.2364 20.3872C13.067 20.726 12.7207 20.94 12.342 20.94H9.61441C8.8719 20.94 8.38836 20.1594 8.71909 19.4946L11.97 12.96H8C7.44772 12.96 7 12.5123 7 11.96V4Z" fill="black"/>
<path d="M31 4C31 3.44772 31.4477 3 32 3H39.95C40.5023 3 40.95 3.44772 40.95 4V12.7239C40.95 12.8792 40.9139 13.0323 40.8444 13.1711L37.2364 20.3872C37.067 20.726 36.7207 20.94 36.342 20.94H33.6144C32.8719 20.94 32.3884 20.1594 32.7191 19.4946L35.97 12.96H32C31.4477 12.96 31 12.5123 31 11.96V4Z" fill="black"/>
</svg>
