<svg width="48" height="24" viewBox="0 0 48 24" fill="none" xmlns="http://www.w3.org/2000/svg">
<path d="M17 20C17 20.5523 16.5523 21 16 21L8.05 21C7.49771 21 7.05 20.5523 7.05 20L7.05 11.2761C7.05 11.1208 7.08615 10.9677 7.15557 10.8289L10.7636 3.61279C10.933 3.274 11.2793 3.06 11.658 3.06L14.3856 3.06C15.1281 3.06 15.6116 3.84064 15.2809 4.50542L12.03 11.04L16 11.04C16.5523 11.04 17 11.4877 17 12.04L17 20Z" fill="black"/>
<path d="M41 20C41 20.5523 40.5523 21 40 21L32.05 21C31.4977 21 31.05 20.5523 31.05 20L31.05 11.2761C31.05 11.1208 31.0861 10.9677 31.1556 10.8289L34.7636 3.61279C34.933 3.274 35.2793 3.06 35.658 3.06L38.3856 3.06C39.1281 3.06 39.6116 3.84064 39.2809 4.50542L36.03 11.04L40 11.04C40.5523 11.04 41 11.4877 41 12.04L41 20Z" fill="black"/>
</svg>
