<svg width="24" height="25" viewBox="0 0 24 25" fill="none" xmlns="http://www.w3.org/2000/svg">
<path d="M16.5999 5.9616C15.9165 5.18113 15.5398 4.179 15.5399 3.1416H12.4499V15.5416C12.4266 16.2128 12.1434 16.8487 11.6602 17.3151C11.177 17.7815 10.5315 18.042 9.85991 18.0416C8.43991 18.0416 7.25991 16.8816 7.25991 15.4416C7.25991 13.7216 8.91991 12.4316 10.6299 12.9616V9.8016C7.17991 9.3416 4.15991 12.0216 4.15991 15.4416C4.15991 18.7716 6.91991 21.1416 9.84991 21.1416C12.9899 21.1416 15.5399 18.5916 15.5399 15.4416V9.1516C16.7929 10.0515 18.2973 10.5342 19.8399 10.5316V7.4416C19.8399 7.4416 17.9599 7.5316 16.5999 5.9616Z" fill="#0BC6FF"/>
</svg>
