<svg width="24" height="25" viewBox="0 0 24 25" fill="none" xmlns="http://www.w3.org/2000/svg">
<path d="M7.8 2.1416H16.2C19.4 2.1416 22 4.7416 22 7.9416V16.3416C22 17.8799 21.3889 19.3551 20.3012 20.4428C19.2135 21.5305 17.7383 22.1416 16.2 22.1416H7.8C4.6 22.1416 2 19.5416 2 16.3416V7.9416C2 6.40335 2.61107 4.92809 3.69878 3.84038C4.78649 2.75267 6.26174 2.1416 7.8 2.1416ZM7.6 4.1416C6.64522 4.1416 5.72955 4.52089 5.05442 5.19602C4.37928 5.87115 4 6.78682 4 7.7416V16.5416C4 18.5316 5.61 20.1416 7.6 20.1416H16.4C17.3548 20.1416 18.2705 19.7623 18.9456 19.0872C19.6207 18.4121 20 17.4964 20 16.5416V7.7416C20 5.7516 18.39 4.1416 16.4 4.1416H7.6ZM17.25 5.6416C17.5815 5.6416 17.8995 5.7733 18.1339 6.00772C18.3683 6.24214 18.5 6.56008 18.5 6.8916C18.5 7.22312 18.3683 7.54106 18.1339 7.77549C17.8995 8.00991 17.5815 8.1416 17.25 8.1416C16.9185 8.1416 16.6005 8.00991 16.3661 7.77549C16.1317 7.54106 16 7.22312 16 6.8916C16 6.56008 16.1317 6.24214 16.3661 6.00772C16.6005 5.7733 16.9185 5.6416 17.25 5.6416ZM12 7.1416C13.3261 7.1416 14.5979 7.66839 15.5355 8.60607C16.4732 9.54375 17 10.8155 17 12.1416C17 13.4677 16.4732 14.7395 15.5355 15.6771C14.5979 16.6148 13.3261 17.1416 12 17.1416C10.6739 17.1416 9.40215 16.6148 8.46447 15.6771C7.52678 14.7395 7 13.4677 7 12.1416C7 10.8155 7.52678 9.54375 8.46447 8.60607C9.40215 7.66839 10.6739 7.1416 12 7.1416ZM12 9.1416C11.2044 9.1416 10.4413 9.45767 9.87868 10.0203C9.31607 10.5829 9 11.346 9 12.1416C9 12.9373 9.31607 13.7003 9.87868 14.2629C10.4413 14.8255 11.2044 15.1416 12 15.1416C12.7956 15.1416 13.5587 14.8255 14.1213 14.2629C14.6839 13.7003 15 12.9373 15 12.1416C15 11.346 14.6839 10.5829 14.1213 10.0203C13.5587 9.45767 12.7956 9.1416 12 9.1416Z" fill="#0BC6FF"/>
</svg>
